<?xml version="1.0" standalone="no"?>
<!DOCTYPE svg PUBLIC "-//W3C//DTD SVG 20010904//EN"
 "http://www.w3.org/TR/2001/REC-SVG-20010904/DTD/svg10.dtd">
<svg version="1.0" xmlns="http://www.w3.org/2000/svg"
 width="942.000000pt" height="1332.000000pt" viewBox="0 0 942.000000 1332.000000"
 preserveAspectRatio="xMidYMid meet">

<g transform="translate(0.000000,1332.000000) scale(0.100000,-0.100000)"
fill="#000000" stroke="none">
<path d="M3542 11658 l3 -203 258 -3 257 -2 0 -45 0 -45 -257 -2 -258 -3 -3
-77 -3 -78 346 0 345 0 0 205 0 205 -262 2 -263 3 -3 48 -3 47 265 0 266 0 0
75 0 75 -345 0 -345 0 2 -202z"/>
<path d="M4322 11533 l3 -328 348 -3 347 -2 0 330 0 330 -350 0 -350 0 2 -327z
m528 2 l0 -175 -180 0 -180 0 0 175 0 175 180 0 180 0 0 -175z"/>
<path d="M5120 11530 l0 -330 80 0 80 0 0 180 c0 144 3 179 13 170 6 -6 24
-19 38 -28 15 -9 59 -39 99 -67 40 -27 84 -58 99 -67 108 -71 110 -73 113
-131 l3 -52 78 -3 77 -3 0 331 0 330 -80 0 -80 0 0 -170 c0 -93 -3 -170 -6
-170 -7 0 -45 21 -58 32 -12 10 -168 118 -248 171 -47 31 -48 33 -48 84 l0 53
-80 0 -80 0 0 -330z"/>
<path d="M5910 11530 l0 -330 340 0 340 0 0 205 0 205 -145 0 -146 0 3 -77 3
-78 63 -3 62 -3 0 -44 0 -45 -180 0 -180 0 0 175 0 175 260 0 260 0 0 75 0 75
-340 0 -340 0 0 -330z"/>
</g>
</svg>
