<?xml version="1.0" standalone="no"?>
<!DOCTYPE svg PUBLIC "-//W3C//DTD SVG 20010904//EN"
 "http://www.w3.org/TR/2001/REC-SVG-20010904/DTD/svg10.dtd">
<svg version="1.0" xmlns="http://www.w3.org/2000/svg"
 width="942.000000pt" height="1332.000000pt" viewBox="0 0 942.000000 1332.000000"
 preserveAspectRatio="xMidYMid meet">

<g transform="translate(0.000000,1332.000000) scale(0.100000,-0.100000)"
fill="#000000" stroke="none">
<path d="M2810 11410 c0 -32 4 -81 9 -107 5 -26 15 -94 21 -151 7 -56 16 -104
20 -107 4 -3 11 -26 15 -52 7 -48 31 -129 63 -213 l17 -45 6 45 c6 41 6 39 7
-20 0 -47 6 -76 21 -104 l21 -39 3 179 2 179 3 -191 c2 -201 5 -215 65 -309 6
-10 32 -51 57 -90 106 -167 300 -376 461 -498 190 -143 440 -272 644 -333 28
-9 59 -19 70 -25 22 -10 183 -44 280 -59 182 -29 537 -21 700 16 250 55 370
96 558 188 218 108 362 212 537 386 145 144 156 156 234 268 83 119 216 358
216 387 0 4 6 21 14 38 8 18 29 79 46 137 17 58 36 119 41 137 16 51 41 240
46 346 l5 97 -2091 0 -2091 0 0 -60z m2310 -640 c0 -431 -10 -566 -24 -312
-14 261 -4 752 15 752 5 0 9 -198 9 -440z m250 0 c0 -287 -3 -440 -10 -440 -7
0 -10 153 -10 440 0 287 3 440 10 440 7 0 10 -153 10 -440z m53 328 c15 -248
5 -768 -15 -768 -4 0 -8 198 -8 440 0 424 10 562 23 328z m56 -308 c1 -332 -6
-488 -20 -440 -9 33 -11 808 -2 840 15 50 21 -72 22 -400z m-409 -20 c0 -405
-10 -543 -24 -323 -14 238 -4 759 15 747 5 -3 9 -194 9 -424z m99 0 c0 -427
-12 -536 -23 -217 -9 239 2 680 15 612 5 -22 8 -200 8 -395z m56 10 c0 -212
-4 -398 -9 -415 l-9 -30 -8 45 c-9 55 -11 695 -2 769 5 44 8 50 17 35 7 -13
11 -142 11 -404z m100 -219 c-7 -182 -10 -218 -18 -186 -13 52 -15 691 -2 770
8 54 10 38 18 -149 5 -115 6 -311 2 -435z m204 224 c1 -308 -6 -462 -20 -415
-9 33 -11 744 -2 795 l8 40 6 -60 c4 -33 7 -195 8 -360z m-255 190 c7 -215 -2
-615 -14 -615 -12 0 -20 158 -20 416 0 255 7 404 20 404 4 0 10 -92 14 -205z
m965 -202 c-1 -272 -4 -396 -10 -373 -19 71 -13 780 7 780 2 0 4 -183 3 -407z
m-2448 2 c0 -187 -4 -356 -10 -375 -6 -23 -9 99 -9 370 0 277 3 396 9 375 6
-17 10 -175 10 -370z m661 -180 c-3 -126 -9 -219 -13 -205 -9 34 -11 709 -1
751 11 54 20 -285 14 -546z m-714 175 c0 -118 -3 -253 -7 -300 -5 -53 -8 61
-8 300 0 239 3 353 8 300 4 -47 7 -182 7 -300z m770 -3 c-2 -285 -6 -371 -15
-375 -10 -3 -13 77 -13 377 0 335 2 380 15 375 13 -5 15 -54 13 -377z m1675
-189 c-9 -187 -10 -180 -10 192 0 372 1 379 10 193 6 -123 6 -263 0 -385z
m-1365 206 c3 -360 0 -406 -21 -385 -9 9 -13 97 -15 314 -4 319 2 431 21 424
9 -3 13 -98 15 -353z m-410 -14 c0 -124 -3 -250 -7 -280 l-6 -55 -8 44 c-10
57 -10 514 0 583 l8 53 6 -60 c4 -33 7 -161 7 -285z m147 0 c0 -250 -3 -324
-12 -327 -10 -4 -13 66 -13 327 0 261 3 331 13 328 9 -4 12 -78 12 -328z m309
15 c1 -143 -3 -278 -9 -300 -9 -38 -9 -36 -16 45 -9 114 -10 319 -2 460 11
197 26 85 27 -205z m156 -22 c-1 -290 -2 -325 -15 -303 -19 33 -22 564 -3 605
6 14 13 25 15 25 1 0 3 -147 3 -327z m1268 0 c0 -199 -4 -302 -8 -263 -15 127
-9 590 6 590 2 0 3 -147 2 -327z m-1518 15 c0 -297 -6 -354 -29 -310 -15 27
-15 565 -1 593 26 48 30 10 30 -283z m-1293 -160 c-1 -84 -3 -16 -3 152 0 168
2 236 3 153 2 -84 2 -222 0 -305z m368 152 c0 -210 -3 -282 -12 -291 -10 -10
-13 48 -13 291 0 243 3 302 13 292 9 -10 12 -82 12 -292z m-155 -1 c0 -191 -3
-288 -10 -284 -6 4 -10 106 -10 275 0 240 3 300 16 300 2 0 4 -131 4 -291z
m1888 1 c0 -286 -11 -363 -21 -147 -8 161 2 458 14 417 4 -14 7 -135 7 -270z
m865 145 c8 -162 -2 -435 -15 -435 -4 0 -8 131 -8 290 0 160 4 290 8 290 5 0
12 -65 15 -145z m-1835 -151 c-2 -171 -7 -269 -13 -269 -11 0 -20 518 -10 544
4 9 9 11 15 5 7 -7 9 -113 8 -280z m1122 1 c0 -275 -11 -361 -23 -177 -9 124
-9 245 -1 360 13 176 24 90 24 -183z m402 -136 c-9 -136 -9 -129 -9 136 0 259
1 270 9 144 5 -80 5 -196 0 -280z m-1412 142 c0 -234 -7 -287 -30 -226 -11 28
-14 405 -4 443 4 12 13 22 20 22 12 0 14 -42 14 -239z m961 122 c1 -183 -2
-357 -7 -362 -14 -14 -19 31 -22 191 -4 187 3 288 19 288 5 0 9 -52 10 -117z
m99 -130 c0 -153 -4 -243 -9 -237 -16 16 -17 484 -1 484 6 0 10 -89 10 -247z
m-2700 7 c0 -147 -4 -230 -10 -230 -6 0 -10 83 -10 230 0 147 4 230 10 230 6
0 10 -83 10 -230z m1578 -2 c-2 -149 -7 -232 -13 -231 -6 2 -11 90 -13 233 -2
201 0 230 13 230 13 0 15 -29 13 -232z m1277 -3 c0 -166 -3 -219 -12 -222 -10
-4 -13 45 -13 222 0 177 3 226 13 223 9 -4 12 -57 12 -223z m50 0 c0 -166 -3
-219 -12 -222 -10 -4 -13 45 -13 222 0 177 3 226 13 223 9 -4 12 -57 12 -223z
m-1727 3 c-2 -158 -6 -212 -15 -216 -10 -3 -13 44 -13 212 0 187 2 216 15 216
13 0 15 -28 13 -212z m1572 2 c0 -208 -16 -279 -22 -97 -4 146 2 297 13 297 5
0 9 -83 9 -200z m50 -6 c0 -134 -3 -203 -10 -199 -6 4 -10 83 -10 206 0 126 4
199 10 199 6 0 10 -75 10 -206z m-904 151 c8 -58 1 -331 -9 -341 -19 -20 -27
32 -27 181 0 159 5 205 21 205 4 0 11 -20 15 -45z m654 -144 c0 -116 -4 -192
-10 -196 -7 -4 -10 62 -10 189 0 124 4 196 10 196 6 0 10 -70 10 -189z m-1428
-88 c-2 -52 -8 -91 -13 -87 -11 6 -12 337 -1 348 9 10 18 -146 14 -261z m103
94 c0 -84 -4 -161 -9 -172 l-8 -20 -8 20 c-10 23 -13 289 -4 323 5 17 10 20
18 12 7 -7 11 -64 11 -163z m2185 -14 c0 -125 -4 -183 -10 -173 -18 27 -12
360 6 360 2 0 4 -84 4 -187z m-2440 1 c0 -136 -3 -175 -12 -172 -10 4 -14 47
-16 163 -3 162 0 185 18 185 6 0 10 -62 10 -176z m-623 -87 c-1 -45 -3 -5 -3
88 0 94 2 130 3 82 2 -48 2 -125 0 -170z m213 91 c-1 -116 -4 -158 -11 -145
-18 31 -12 307 7 307 2 0 4 -73 4 -162z m2400 7 c0 -147 -5 -188 -21 -163 -10
15 -12 301 -3 311 18 18 24 -17 24 -148z m-1945 -5 c0 -106 -3 -144 -12 -147
-10 -4 -13 30 -13 147 0 117 3 151 13 148 9 -4 12 -42 12 -148z m1982 -77 c-1
-43 -3 -8 -3 77 0 85 2 120 3 78 2 -43 2 -113 0 -155z m263 77 c0 -82 -4 -141
-10 -145 -6 -4 -10 47 -10 145 0 98 4 149 10 145 6 -4 10 -63 10 -145z m-3210
0 c0 -87 -4 -140 -10 -140 -6 0 -10 51 -10 133 0 117 3 147 17 147 2 0 3 -63
3 -140z m151 0 c0 -73 -4 -127 -10 -133 -8 -8 -11 32 -11 133 0 101 3 141 11
133 6 -6 10 -60 10 -133z m869 0 c0 -87 -4 -140 -10 -140 -6 0 -10 51 -10 133
0 117 3 147 17 147 2 0 3 -63 3 -140z m764 124 c23 -23 23 -225 0 -248 -8 -9
-17 -16 -20 -16 -2 0 -4 63 -4 140 0 77 2 140 4 140 3 0 12 -7 20 -16z m-1685
-126 c0 -84 -4 -126 -9 -113 -16 37 -10 245 6 245 2 0 4 -60 3 -132z m1131 -5
c-1 -129 -2 -136 -16 -110 -19 35 -21 175 -4 217 7 17 14 30 16 30 2 0 4 -62
4 -137z m2030 6 c0 -77 -4 -118 -10 -114 -19 11 -12 235 7 235 2 0 3 -54 3
-121z m197 -61 c-2 -35 -3 -7 -3 62 0 69 1 97 3 63 2 -35 2 -91 0 -125z
m-3048 57 c0 -46 -5 -77 -14 -89 -13 -18 -15 -8 -15 95 1 104 2 112 15 89 9
-15 14 -53 14 -95z m351 -2 c0 -74 -3 -103 -10 -93 -18 28 -12 200 7 200 2 0
3 -48 3 -107z m110 7 c0 -94 -10 -128 -24 -77 -14 53 -4 177 15 177 5 0 9 -45
9 -100z m2640 -40 c-6 -35 -7 -24 -8 50 0 79 2 87 8 45 4 -27 4 -70 0 -95z
m-103 -13 c-2 -23 -3 -1 -3 48 0 50 1 68 3 42 2 -26 2 -67 0 -90z m-3207 54
c0 -33 -4 -63 -10 -66 -6 -4 -10 18 -10 59 0 37 4 66 10 66 6 0 10 -26 10 -59z
m260 -2 c0 -44 -3 -60 -12 -57 -13 5 -23 80 -14 104 13 34 26 10 26 -47z
m3110 11 c0 -27 -4 -50 -10 -50 -5 0 -10 23 -10 50 0 28 5 50 10 50 6 0 10
-22 10 -50z m-3520 -9 c0 -28 -4 -53 -10 -56 -6 -4 -10 15 -10 49 0 31 5 56
10 56 6 0 10 -22 10 -49z m3567 -8 c-3 -10 -5 -2 -5 17 0 19 2 27 5 18 2 -10
2 -26 0 -35z m-3367 1 c0 -21 -4 -33 -10 -29 -5 3 -10 19 -10 36 0 16 5 29 10
29 6 0 10 -16 10 -36z m557 -11 c-4 -17 -4 -17 -12 0 -4 9 -4 25 0 35 8 16 8
16 12 0 3 -10 3 -26 0 -35z m2863 12 c0 -8 -4 -15 -10 -15 -5 0 -10 7 -10 15
0 8 5 15 10 15 6 0 10 -7 10 -15z"/>
</g>
</svg>
