<?xml version="1.0" standalone="no"?>
<!DOCTYPE svg PUBLIC "-//W3C//DTD SVG 20010904//EN"
 "http://www.w3.org/TR/2001/REC-SVG-20010904/DTD/svg10.dtd">
<svg version="1.0" xmlns="http://www.w3.org/2000/svg"
 width="500.000000pt" height="500.000000pt" viewBox="0 0 500.000000 500.000000"
 preserveAspectRatio="xMidYMid meet">

<g transform="translate(0.000000,500.000000) scale(0.100000,-0.100000)"
fill="#000000" stroke="none">
<path d="M430 3030 l0 -160 200 0 200 0 0 -40 0 -40 -200 0 -200 0 0 -60 0
-60 265 0 265 0 0 160 0 160 -200 0 -200 0 0 40 0 40 200 0 200 0 0 60 0 60
-265 0 -265 0 0 -160z"/>
<path d="M1030 2930 l0 -260 265 0 265 0 0 260 0 260 -265 0 -265 0 0 -260z
m400 0 l0 -140 -135 0 -135 0 0 140 0 140 135 0 135 0 0 -140z"/>
<path d="M1640 2930 l0 -260 60 0 59 0 3 139 3 139 137 -96 137 -97 1 -42 0
-43 60 0 60 0 0 260 0 260 -60 0 -60 0 0 -136 c0 -118 -2 -135 -15 -130 -9 3
-72 45 -140 93 l-124 88 -1 43 0 42 -60 0 -60 0 0 -260z"/>
<path d="M2240 2930 l0 -260 260 0 260 0 0 160 0 160 -110 0 -110 0 0 -60 0
-60 50 0 50 0 0 -40 0 -40 -140 0 -140 0 0 140 0 140 200 0 200 0 0 60 0 60
-260 0 -260 0 0 -260z"/>
<path d="M2840 2930 l0 -260 260 0 260 0 0 60 0 60 -200 0 -200 0 0 200 0 200
-60 0 -60 0 0 -260z"/>
<path d="M3440 2930 l0 -260 60 0 60 0 0 50 0 50 140 0 140 0 0 -50 0 -50 60
0 60 0 0 260 0 260 -260 0 -260 0 0 -260z m400 50 l0 -91 -137 3 -138 3 -3 88
-3 87 141 0 140 0 0 -90z"/>
<path d="M4050 2930 l0 -260 260 0 260 0 0 260 0 260 -260 0 -260 0 0 -260z
m398 103 l-3 -38 -137 -3 -138 -3 0 41 0 40 141 0 140 0 -3 -37z m0 -200 l-3
-38 -137 -3 -138 -3 0 41 0 40 141 0 140 0 -3 -37z"/>
<path d="M910 2443 c1 -118 29 -275 78 -433 25 -83 26 -84 33 -50 7 33 7 32 5
-10 -1 -27 5 -61 15 -85 l18 -40 3 145 4 145 2 -161 2 -160 54 -92 c76 -128
150 -222 258 -330 264 -261 608 -420 983 -453 290 -26 585 31 849 163 507 254
844 760 873 1311 l6 107 -1592 0 -1591 0 0 -57z m1720 -494 c0 -231 -3 -348
-10 -344 -6 4 -10 126 -10 335 0 294 3 360 16 360 2 0 4 -158 4 -351z m40 1
c0 -192 -4 -350 -9 -350 -4 0 -11 79 -15 175 -8 192 2 525 15 525 5 0 9 -157
9 -350z m39 0 c0 -146 -4 -285 -8 -310 -12 -77 -23 290 -15 488 11 249 23 158
23 -178z m40 0 c0 -146 -4 -285 -8 -310 l-7 -45 -7 55 c-4 30 -7 165 -7 300 0
135 3 270 7 300 l7 55 7 -45 c4 -25 8 -164 8 -310z m35 -150 c-6 -144 -10
-192 -15 -160 -10 59 -11 539 -2 610 13 98 25 -223 17 -450z m40 0 c-6 -144
-10 -192 -15 -160 -10 59 -11 539 -2 610 13 98 25 -223 17 -450z m36 150 c0
-227 -4 -350 -10 -350 -6 0 -10 123 -10 350 0 227 4 350 10 350 6 0 10 -123
10 -350z m40 0 c0 -227 -4 -350 -10 -350 -6 0 -10 123 -10 350 0 227 4 350 10
350 6 0 10 -123 10 -350z m40 0 c0 -227 -4 -350 -10 -350 -6 0 -10 123 -10
350 0 227 4 350 10 350 6 0 10 -123 10 -350z m39 0 c0 -146 -4 -285 -8 -310
-5 -26 -8 101 -8 310 0 209 3 336 8 310 4 -25 8 -164 8 -310z m498 -178 c-1
-97 -2 -17 -2 178 0 195 1 275 2 177 2 -97 2 -257 0 -355z m42 176 c-2 -324
-3 -341 -11 -203 -8 133 -2 555 8 555 2 0 3 -159 3 -352z m-1866 -160 c-9
-157 -10 -151 -10 162 0 313 1 319 10 163 6 -104 6 -222 0 -325z m506 155 c-1
-175 -5 -307 -9 -293 -4 14 -8 147 -9 295 -1 241 3 315 15 315 2 0 4 -143 3
-317z m-546 -145 c-9 -148 -10 -143 -10 152 0 295 1 300 10 153 6 -99 6 -207
0 -305z m587 146 c0 -189 -4 -294 -10 -294 -6 0 -10 107 -10 301 0 197 3 298
10 294 6 -4 10 -115 10 -301z m240 8 c0 -256 -6 -332 -24 -287 -8 22 -8 560 0
568 20 20 24 -30 24 -281z m-311 18 c1 -147 -10 -295 -20 -260 -9 34 -11 429
-2 471 7 31 8 28 14 -31 4 -36 7 -117 8 -180z m111 -25 c0 -158 -4 -256 -10
-260 -7 -4 -10 85 -10 260 0 175 3 264 10 260 6 -4 10 -102 10 -260z m160 3
c-1 -233 -2 -261 -15 -244 -20 26 -22 455 -3 486 7 11 14 20 15 20 2 0 3 -118
3 -262z m74 2 c0 -140 -4 -224 -11 -240 -9 -19 -12 34 -12 240 0 206 3 259 12
240 7 -16 11 -100 11 -240z m1084 -2 c-1 -171 -4 -240 -8 -198 -14 117 -8 460
6 460 2 0 3 -118 2 -262z m-969 -5 c0 -154 -4 -250 -9 -238 -5 11 -9 120 -9
242 -1 198 2 253 15 253 2 0 4 -116 3 -257z m-1172 -115 c-1 -68 -3 -13 -3
122 0 135 2 190 3 123 2 -68 2 -178 0 -245z m281 122 c0 -74 -3 -160 -8 -190
-4 -34 -7 37 -7 190 0 153 3 224 7 190 5 -30 8 -116 8 -190z m-118 -1 c0 -151
-3 -228 -10 -224 -6 4 -10 86 -10 215 0 187 4 240 16 240 2 0 4 -104 4 -231z
m1438 -4 c0 -104 -3 -199 -8 -210 -5 -12 -8 75 -8 215 0 132 3 224 8 210 4
-14 8 -110 8 -215z m660 5 c0 -74 -3 -157 -8 -185 -4 -32 -7 37 -7 185 0 148
3 217 7 185 5 -27 8 -111 8 -185z m-1398 0 c0 -128 -4 -211 -10 -215 -7 -4
-10 70 -10 215 0 145 3 219 10 215 6 -4 10 -87 10 -215z m1157 -112 c-1 -62
-3 -12 -3 112 0 124 2 174 3 113 2 -62 2 -164 0 -225z m-308 105 c-1 -144 -4
-203 -10 -173 -14 83 -9 390 7 390 2 0 3 -98 3 -217z m-809 7 c0 -98 -4 -181
-9 -184 -14 -9 -21 49 -21 184 0 135 7 193 21 184 5 -3 9 -86 9 -184z m40 -7
c0 -158 -3 -195 -12 -185 -9 9 -14 59 -16 154 -4 146 3 228 19 228 5 0 9 -81
9 -197z m739 16 c1 -75 -2 -152 -6 -170 -7 -33 -7 -33 -14 -9 -9 33 -11 288
-2 331 7 33 7 33 14 9 4 -14 7 -86 8 -161z m70 -16 c-1 -113 -5 -185 -9 -168
-15 61 -10 365 6 365 2 0 3 -89 3 -197z m-2062 -90 c-1 -54 -3 -12 -3 92 0
105 2 149 3 98 2 -51 2 -136 0 -190z m2183 97 c0 -113 -4 -180 -10 -180 -6 0
-10 64 -10 173 0 153 3 187 17 187 2 0 3 -81 3 -180z m40 0 c0 -102 -4 -171
-10 -175 -7 -4 -10 57 -10 175 0 118 3 179 10 175 6 -4 10 -73 10 -175z
m-1320 0 c0 -107 -4 -170 -10 -170 -6 0 -10 63 -10 170 0 107 4 170 10 170 6
0 10 -63 10 -170z m1200 0 c0 -100 -4 -160 -10 -160 -6 0 -10 60 -10 160 0
100 4 160 10 160 6 0 10 -60 10 -160z m40 0 c0 -100 -4 -160 -10 -160 -6 0
-10 60 -10 160 0 100 4 160 10 160 6 0 10 -60 10 -160z m-1205 0 c0 -90 -4
-133 -12 -141 -10 -11 -13 18 -13 141 0 123 3 152 13 142 8 -9 12 -52 12 -142z
m515 1 c0 -137 -8 -186 -24 -145 -8 20 -8 258 0 278 17 43 24 2 24 -133z m500
-1 c0 -93 -4 -150 -10 -150 -6 0 -10 57 -10 150 0 93 4 150 10 150 6 0 10 -57
10 -150z m647 -77 c-1 -43 -3 -8 -3 77 0 85 2 120 3 78 2 -43 2 -113 0 -155z
m-1857 77 c0 -87 -4 -140 -10 -140 -6 0 -10 51 -10 133 0 117 3 147 17 147 2
0 3 -63 3 -140z m120 -1 c0 -91 -4 -138 -10 -134 -6 4 -10 60 -10 134 0 112 3
141 17 141 2 0 3 -63 3 -141z m-593 -66 c-2 -38 -3 -7 -3 67 0 74 1 105 3 68
2 -38 2 -98 0 -135z m163 65 c0 -90 -3 -128 -10 -118 -17 27 -12 250 6 250 2
0 4 -60 4 -132z m1830 2 c0 -68 -4 -121 -10 -125 -6 -4 -10 40 -10 125 0 85 4
129 10 125 6 -4 10 -57 10 -125z m-1480 0 c0 -62 -4 -111 -10 -115 -6 -4 -10
37 -10 115 0 78 4 119 10 115 6 -4 10 -53 10 -115z m1507 -62 c-2 -35 -3 -7
-3 62 0 69 1 97 3 63 2 -35 2 -91 0 -125z m203 64 c0 -59 -5 -114 -10 -122 -7
-10 -10 27 -10 113 0 83 4 126 10 122 6 -4 10 -52 10 -113z m-2453 -59 c-2
-32 -3 -6 -3 57 0 63 1 89 3 58 2 -32 2 -84 0 -115z m123 57 c0 -55 -4 -102
-10 -105 -6 -4 -10 33 -10 105 0 72 4 109 10 105 6 -3 10 -50 10 -105z m660 0
c0 -67 -4 -110 -10 -110 -11 0 -14 202 -3 213 12 13 13 7 13 -103z m590 0 c0
-78 -3 -99 -15 -104 -13 -5 -15 11 -15 104 0 93 2 109 15 104 12 -5 15 -26 15
-104z m-1291 -7 c0 -70 -3 -101 -9 -88 -16 37 -11 195 6 195 2 0 4 -48 3 -107z
m861 0 c-1 -99 -2 -106 -15 -83 -24 42 -16 190 10 190 3 0 5 -48 5 -107z
m1550 6 c0 -64 -4 -98 -10 -94 -11 7 -14 178 -3 188 12 13 13 7 13 -94z
m-2180 1 c0 -36 -5 -72 -10 -80 -7 -10 -10 15 -10 80 0 65 3 90 10 80 5 -8 10
-44 10 -80z m2327 -47 c-2 -27 -3 -5 -3 47 0 52 1 74 3 48 2 -27 2 -69 0 -95z
m-2060 -6 c-2 -23 -3 -1 -3 48 0 50 1 68 3 42 2 -26 2 -67 0 -90z m83 51 c0
-57 -3 -78 -10 -68 -16 25 -11 150 6 150 2 0 4 -37 4 -82z m2017 -25 c-2 -21
-4 -4 -4 37 0 41 2 58 4 38 2 -21 2 -55 0 -75z m-80 -10 c-2 -21 -4 -6 -4 32
0 39 2 55 4 38 2 -18 2 -50 0 -70z m-2450 10 c-2 -16 -4 -3 -4 27 0 30 2 43 4
28 2 -16 2 -40 0 -55z m203 26 c0 -31 -4 -48 -10 -44 -17 11 -12 95 7 95 2 0
3 -23 3 -51z m2367 -11 c-2 -13 -4 -3 -4 22 0 25 2 35 4 23 2 -13 2 -33 0 -45z
m-2677 13 c0 -22 -4 -43 -10 -46 -6 -4 -10 12 -10 39 0 25 5 46 10 46 6 0 10
-18 10 -39z m2717 -8 c-3 -10 -5 -4 -5 12 0 17 2 24 5 18 2 -7 2 -21 0 -30z
m-2570 -10 c-3 -10 -5 -4 -5 12 0 17 2 24 5 18 2 -7 2 -21 0 -30z m433 17 c0
-11 -4 -20 -10 -20 -5 0 -10 9 -10 20 0 11 5 20 10 20 6 0 10 -9 10 -20z
m2180 0 c0 -5 -4 -10 -10 -10 -5 0 -10 5 -10 10 0 6 5 10 10 10 6 0 10 -4 10
-10z"/>
</g>
</svg>
