<?xml version="1.0" standalone="no"?>
<!DOCTYPE svg PUBLIC "-//W3C//DTD SVG 20010904//EN"
 "http://www.w3.org/TR/2001/REC-SVG-20010904/DTD/svg10.dtd">
<svg version="1.0" xmlns="http://www.w3.org/2000/svg"
 width="942.000000pt" height="1332.000000pt" viewBox="0 0 942.000000 1332.000000"
 preserveAspectRatio="xMidYMid meet">

<g transform="translate(0.000000,1332.000000) scale(0.100000,-0.100000)"
fill="#000000" stroke="none">
<path d="M3370 9250 l0 -330 340 0 340 0 0 75 0 75 -262 2 -263 3 -3 253 -2
252 -75 0 -75 0 0 -330z"/>
<path d="M4152 9253 l3 -328 78 -3 77 -3 0 66 0 65 185 0 185 0 0 -65 0 -65
80 0 80 0 0 330 0 330 -345 0 -345 0 2 -327z m528 62 l0 -115 -182 2 -183 3
-3 113 -3 112 186 0 185 0 0 -115z"/>
<path d="M4950 9250 l0 -330 340 0 340 0 0 330 0 330 -340 0 -340 0 0 -330z
m520 130 l0 -50 -180 0 -180 0 0 50 0 50 180 0 180 0 0 -50z m-5 -255 l0 -50
-177 -3 -178 -2 0 55 0 55 178 -2 177 -3 0 -50z"/>
</g>
</svg>
