<svg width="397" height="175" viewBox="0 0 397 175" fill="none" xmlns="http://www.w3.org/2000/svg">
<path d="M0 5.17577C0 7.93613 0.379176 12.1629 0.853146 14.4057C1.32712 16.6485 2.27506 22.5143 2.84382 27.4312C3.50738 32.2618 4.36053 36.4024 4.7397 36.6611C5.11888 36.9199 5.78244 38.9039 6.16161 41.1467C6.82517 45.2873 9.10023 52.2744 12.1336 59.5204L13.7451 63.4021L14.3139 59.5204C14.8827 55.9837 14.8827 56.1562 14.9775 61.2456C14.9775 65.2999 15.5462 67.8015 16.9681 70.2168L18.9588 73.581L19.2432 58.1402L19.4328 42.6994L19.7172 59.1753C19.9067 76.5139 20.1911 77.7215 25.8788 85.8301C26.4475 86.6927 28.9122 90.2294 31.282 93.5936C41.3302 107.999 59.7202 126.028 74.9821 136.552C92.9929 148.887 116.691 160.015 136.029 165.277C138.684 166.053 141.622 166.916 142.665 167.433C144.75 168.296 160.012 171.229 169.207 172.523C186.46 175.024 220.112 174.334 235.563 171.142C259.262 166.398 270.637 162.861 288.458 154.925C309.123 145.609 322.774 136.638 339.363 121.628C353.108 109.207 354.15 108.172 361.544 98.5105C369.412 88.2454 382.02 67.6289 382.02 65.1274C382.02 64.7823 382.589 63.3159 383.347 61.8494C384.105 60.2967 386.096 55.0348 387.708 50.0316C389.319 45.0285 391.12 39.7665 391.594 38.2139C393.111 33.8145 395.481 17.5111 395.955 8.36745L396.429 9.15527e-05H198.214H0V5.17577ZM218.974 60.383C218.974 97.5616 218.026 109.207 216.699 87.2965C215.372 64.7823 216.32 22.428 218.121 22.428C218.595 22.428 218.974 39.5078 218.974 60.383ZM242.673 60.383C242.673 85.14 242.388 98.338 241.725 98.338C241.061 98.338 240.777 85.14 240.777 60.383C240.777 35.626 241.061 22.428 241.725 22.428C242.388 22.428 242.673 35.626 242.673 60.383ZM247.697 32.0893C249.119 53.4821 248.171 98.338 246.275 98.338C245.896 98.338 245.517 81.2582 245.517 60.383C245.517 23.8082 246.464 11.9041 247.697 32.0893ZM253.005 58.6578C253.1 87.2965 252.436 100.753 251.109 96.6127C250.256 93.7661 250.067 26.9136 250.92 24.1532C252.342 19.8402 252.91 30.3641 253.005 58.6578ZM214.234 60.383C214.234 95.3188 213.287 107.223 211.959 88.2454C210.632 67.7152 211.58 22.7731 213.381 23.8082C213.855 24.067 214.234 40.5429 214.234 60.383ZM223.619 60.383C223.619 97.2166 222.482 106.619 221.439 79.1017C220.586 58.4852 221.628 20.444 222.861 26.3098C223.335 28.2075 223.619 43.562 223.619 60.383ZM228.928 59.5204C228.928 77.8078 228.548 93.8524 228.074 95.3188L227.221 97.9066L226.463 94.0249C225.61 89.2805 225.42 34.0733 226.273 27.69C226.747 23.8945 227.032 23.3769 227.885 24.6708C228.548 25.7922 228.928 36.9199 228.928 59.5204ZM238.407 78.4116C237.743 94.1112 237.459 97.2166 236.701 94.4562C235.468 89.9706 235.279 34.8497 236.511 28.035C237.269 23.3769 237.459 24.7571 238.217 40.8879C238.691 50.808 238.786 67.7152 238.407 78.4116ZM257.745 59.0891C257.84 85.6575 257.176 98.9418 255.849 94.8875C254.996 92.0409 254.806 30.7091 255.659 26.3098L256.418 22.8593L256.987 28.035C257.366 30.8816 257.65 44.856 257.745 59.0891ZM233.572 42.6994C234.236 61.2456 233.383 95.7501 232.245 95.7501C231.108 95.7501 230.349 82.1208 230.349 59.8654C230.349 37.8688 231.013 25.0159 232.245 25.0159C232.625 25.0159 233.193 32.9519 233.572 42.6994ZM325.049 60.1242C324.954 83.5873 324.67 94.2837 324.101 92.2997C322.3 86.1751 322.868 25.0159 324.764 25.0159C324.954 25.0159 325.143 40.8017 325.049 60.1242ZM92.9929 59.9517C92.9929 76.0826 92.6138 90.6607 92.045 92.2997C91.4762 94.2837 91.1918 83.7598 91.1918 60.383C91.1918 36.4886 91.4762 26.2235 92.045 28.035C92.6138 29.5014 92.9929 43.1307 92.9929 59.9517ZM155.652 75.4787C155.367 86.3476 154.799 94.3699 154.419 93.1623C153.566 90.2294 153.377 32.003 154.325 28.3801C155.367 23.7219 156.221 52.9645 155.652 75.4787ZM87.9688 60.383C87.9688 70.5618 87.6845 82.2071 87.3053 86.2614C86.8313 90.8332 86.5469 80.9994 86.5469 60.383C86.5469 39.7665 86.8313 29.9328 87.3053 34.5046C87.6845 38.5589 87.9688 50.2042 87.9688 60.383ZM160.96 60.6418C160.771 85.2262 160.391 92.6447 159.538 92.9898C158.59 93.2485 158.306 86.3476 158.306 60.4693C158.306 31.5717 158.496 27.69 159.728 28.1213C160.96 28.5526 161.15 32.7794 160.96 60.6418ZM319.74 76.9452C318.887 93.076 318.792 92.4722 318.792 60.383C318.792 28.2938 318.887 27.69 319.74 43.7346C320.309 54.3447 320.309 66.4213 319.74 76.9452ZM190.346 59.1753C190.631 90.2294 190.346 94.1974 188.356 92.3859C187.503 91.6096 187.123 84.0186 186.934 65.2999C186.555 37.7825 187.123 28.1213 188.924 28.7251C189.778 28.9839 190.157 37.1787 190.346 59.1753ZM151.481 60.383C151.481 71.0794 151.196 81.9483 150.817 84.5362L150.249 89.2805L149.49 85.485C148.542 80.5681 148.542 41.1467 149.49 35.1947L150.249 30.6228L150.817 35.7985C151.196 38.6452 151.481 49.6866 151.481 60.383ZM165.416 60.383C165.416 81.9483 165.131 88.3316 164.278 88.5904C163.33 88.9355 163.046 82.8972 163.046 60.383C163.046 37.8688 163.33 31.8305 164.278 32.0893C165.131 32.4343 165.416 38.8177 165.416 60.383ZM194.707 59.0891C194.802 71.4244 194.423 83.0697 193.854 84.9675C193.001 88.2454 193.001 88.0729 192.337 81.0857C191.484 71.2519 191.389 53.5684 192.147 41.4055C193.19 24.412 194.612 34.0733 194.707 59.0891ZM209.495 60.9868C209.4 86.0026 209.305 89.0217 208.073 87.124C206.272 84.2774 205.987 38.4726 207.788 34.9359C208.357 33.7283 209.021 32.7794 209.21 32.7794C209.305 32.7794 209.495 45.4598 209.495 60.9868ZM329.694 60.9868C329.694 78.1528 329.314 87.0377 328.935 83.6735C327.513 72.7184 328.082 32.7794 329.504 32.7794C329.694 32.7794 329.788 45.4598 329.694 60.9868ZM185.796 59.6929C185.796 85.3125 185.228 90.2294 183.047 86.4339C181.625 84.1048 181.625 37.6963 182.952 35.281C185.417 31.1404 185.796 34.4184 185.796 59.6929ZM63.2276 73.4947C63.1328 80.7407 62.9432 74.8749 62.9432 60.383C62.9432 45.8911 63.1328 40.0253 63.2276 47.185C63.4172 54.431 63.4172 66.335 63.2276 73.4947ZM98.1118 60.383C98.1118 78.4979 97.8274 84.7087 96.9743 85.485C96.0263 86.3476 95.742 81.3445 95.742 60.383C95.742 39.4215 96.0263 34.3321 96.9743 35.1947C97.8274 36.0573 98.1118 42.2681 98.1118 60.383ZM83.4187 60.4693C83.4187 76.9452 83.1344 85.3125 82.4708 84.9675C81.902 84.6224 81.5229 75.8238 81.5229 61.2456C81.5229 40.5429 81.8072 35.3672 83.0396 35.3672C83.2291 35.3672 83.4187 46.6674 83.4187 60.4693ZM262.39 60.383C262.39 85.0537 261.347 91.6958 260.399 73.0634C259.641 59.1753 260.589 33.5557 261.726 37.0924C262.105 38.3001 262.39 48.7377 262.39 60.383ZM344.387 47.8751C345.145 61.8494 344.197 85.3988 342.965 85.3988C342.586 85.3988 342.206 74.0985 342.206 60.383C342.206 46.5812 342.586 35.3672 342.965 35.3672C343.439 35.3672 344.102 40.9742 344.387 47.8751ZM170.44 60.9006C170.25 75.6512 169.776 84.1048 169.207 84.1048C168.165 84.1048 167.311 39.4215 168.259 37.1787C168.639 36.4024 169.113 36.2298 169.681 36.7474C170.345 37.3512 170.534 46.4949 170.44 60.9006ZM276.799 60.8143C276.799 84.5361 275.756 91.9546 274.618 76.0825C273.765 65.3861 273.765 54.9485 274.523 45.0285C275.756 29.8465 276.799 37.265 276.799 60.8143ZM314.906 72.5458C314.053 84.2774 314.053 83.6735 314.053 60.8143C314.053 38.4726 314.147 37.5238 314.906 48.3927C315.38 55.2936 315.38 65.2999 314.906 72.5458ZM181.057 60.2967C181.057 80.4819 180.393 85.0537 178.213 79.7918C177.17 77.3765 176.886 44.856 177.834 41.578C178.213 40.5429 179.066 39.6803 179.729 39.6803C180.867 39.6803 181.057 43.3033 181.057 60.2967ZM272.154 49.7729C272.248 65.5587 271.964 80.5681 271.49 80.9994C270.163 82.2071 269.689 78.3253 269.405 64.5235C269.025 48.3927 269.689 39.6803 271.206 39.6803C271.68 39.6803 272.059 44.1659 272.154 49.7729ZM281.538 60.9868C281.538 74.1848 281.159 81.9483 280.685 81.4307C279.168 80.0506 279.074 39.6803 280.59 39.6803C281.159 39.6803 281.538 47.3575 281.538 60.9868ZM25.5944 60.383C25.5944 73.0634 25.2152 80.2231 24.6464 80.2231C24.0777 80.2231 23.6985 73.0634 23.6985 60.383C23.6985 47.7026 24.0777 40.5429 24.6464 40.5429C25.2152 40.5429 25.5944 47.7026 25.5944 60.383ZM175.179 60.5555C174.99 73.4084 174.516 80.5681 173.947 80.4819C173.378 80.3093 172.904 72.7184 172.715 60.383C172.525 43.0445 172.715 40.5429 173.947 40.5429C175.179 40.5429 175.369 43.0445 175.179 60.5555ZM296.231 60.8143C296.231 75.1337 295.947 79.7055 295.094 79.9643C294.146 80.3093 293.861 76.0825 293.861 60.8143C293.861 45.5461 294.146 41.3192 295.094 41.578C295.947 41.9231 296.231 46.4949 296.231 60.8143ZM300.971 60.8143C300.971 75.1337 300.687 79.7055 299.833 79.9643C298.886 80.3093 298.601 76.0825 298.601 60.8143C298.601 45.5461 298.886 41.3192 299.833 41.578C300.687 41.9231 300.971 46.4949 300.971 60.8143ZM137.262 60.5555C137.072 74.1848 136.693 78.8429 135.84 79.188C134.892 79.4467 134.608 75.3924 134.608 60.9006C134.608 44.7697 134.797 42.2681 136.029 42.2681C137.262 42.2681 137.451 44.6834 137.262 60.5555ZM286.278 60.383C286.278 78.3253 284.761 84.4499 284.192 68.7503C283.813 56.1562 284.382 43.1307 285.425 43.1307C285.899 43.1307 286.278 50.2904 286.278 60.383ZM291.018 60.9006C291.018 72.4596 290.733 78.4116 290.07 78.0666C289.501 77.7215 289.122 70.9069 289.122 60.2967C289.122 49.4278 289.501 43.1307 290.07 43.1307C290.638 43.1307 291.018 49.6003 291.018 60.9006ZM205.324 47.8751C206.082 52.8783 205.419 76.4276 204.471 77.2902C202.67 79.0154 201.911 74.5298 201.911 61.6769C201.911 47.9614 202.385 43.9933 203.902 43.9933C204.281 43.9933 204.945 45.7186 205.324 47.8751ZM267.319 60.2967C267.319 70.303 266.94 76.8589 266.371 77.2039C265.708 77.549 265.423 71.8557 265.423 60.9006C265.423 50.2042 265.802 43.9933 266.371 43.9933C266.94 43.9933 267.319 50.0316 267.319 60.2967ZM131.953 67.8877C131.764 72.3733 131.195 75.7375 130.721 75.3925C129.678 74.8749 129.583 46.3224 130.626 45.3735C131.479 44.5109 132.332 57.9677 131.953 67.8877ZM141.717 59.7792C141.717 67.0251 141.338 73.6672 140.864 74.6161L140.106 76.3413L139.347 74.6161C138.399 72.6321 138.115 49.6866 138.968 46.7537C139.442 45.2873 139.916 45.0285 140.674 45.7186C141.338 46.3224 141.717 51.2393 141.717 59.7792ZM348.842 60.9868C348.842 71.7695 348.463 76.7726 347.894 75.91C346.188 73.581 346.757 44.856 348.463 44.856C348.652 44.856 348.842 52.1019 348.842 60.9868ZM117.545 60.9006C117.545 72.6321 117.26 75.9963 116.407 75.7375C115.459 75.3925 115.08 71.6832 114.89 61.6769C114.606 47.7026 114.89 45.7186 116.597 45.7186C117.165 45.7186 117.545 51.0668 117.545 60.9006ZM58.4879 68.4053C58.3931 72.287 58.2035 68.8366 58.2035 60.8143C58.2035 52.7057 58.3931 49.6003 58.4879 53.7409C58.6775 57.8814 58.6775 64.5235 58.4879 68.4053ZM78.679 60.5555C78.5842 70.5618 78.2999 74.1848 77.6363 73.0634C75.93 70.3893 76.4988 46.5812 78.2999 46.5812C78.4894 46.5812 78.679 52.8783 78.679 60.5555ZM306.185 59.9517C306.185 72.6321 305.711 76.1688 304.194 74.0123C303.246 72.7184 303.056 48.0476 303.91 47.185C305.616 45.6323 306.185 48.6515 306.185 59.9517ZM121.81 60.383C121.81 69.5267 121.526 72.8046 120.673 73.0634C119.725 73.4084 119.44 70.4756 119.44 60.383C119.44 50.2904 119.725 47.3575 120.673 47.6163C121.526 47.9614 121.81 51.2393 121.81 60.383ZM309.692 67.0251C309.597 70.7343 309.408 67.7152 309.408 60.383C309.408 53.0508 309.597 50.0316 309.692 53.6546C309.882 57.3638 309.882 63.4021 309.692 67.0251ZM334.623 60.383C334.623 67.4564 334.244 72.5458 333.675 72.8909C333.106 73.2359 332.727 68.8366 332.727 60.383C332.727 51.9294 333.106 47.5301 333.675 47.8751C334.244 48.2202 334.623 53.3096 334.623 60.383ZM30.3341 60.383C30.3341 67.8877 29.9549 72.4596 29.3861 72.4596C28.8174 72.4596 28.4382 68.0602 28.4382 60.9868C28.4382 50.8942 28.7226 48.3064 30.0497 48.3064C30.2393 48.3064 30.3341 53.7409 30.3341 60.383ZM44.648 60.383C44.648 66.6801 44.2688 71.3382 43.7 71.8557C42.9417 72.5458 42.6573 69.0954 42.6573 60.383C42.6573 51.6706 42.9417 48.2201 43.7 48.9102C44.2688 49.4278 44.648 54.0859 44.648 60.383ZM127.024 60.383C127.024 67.8877 126.645 72.4596 126.076 72.4596C125.507 72.4596 125.128 68.0602 125.128 60.9868C125.128 50.8942 125.412 48.3064 126.74 48.3064C126.929 48.3064 127.024 53.7409 127.024 60.383ZM199.447 49.6866C201.627 51.6706 201.627 69.0954 199.447 71.0794C198.688 71.8557 197.835 72.4596 197.551 72.4596C197.361 72.4596 197.172 67.0251 197.172 60.383C197.172 53.7409 197.361 48.3064 197.551 48.3064C197.835 48.3064 198.688 48.9102 199.447 49.6866ZM39.7187 60.5555C39.7187 67.8015 39.3395 71.4244 38.8656 70.303C37.3488 67.1114 37.9176 49.169 39.4343 49.169C39.6239 49.169 39.8135 54.3447 39.7187 60.5555ZM146.931 60.9868C146.836 72.1145 146.741 72.7184 145.414 70.4756C143.613 67.4564 143.423 55.3798 145.035 51.7569C145.698 50.2904 146.362 49.169 146.552 49.169C146.741 49.169 146.931 54.5172 146.931 60.9868ZM339.363 60.4693C339.363 67.1114 338.983 70.6481 338.415 70.303C336.614 69.3542 337.277 50.0316 339.078 50.0316C339.268 50.0316 339.363 54.6898 339.363 60.4693ZM358.037 65.7312C357.847 68.7503 357.753 66.335 357.753 60.383C357.753 54.431 357.847 52.0156 358.037 54.9485C358.227 57.9677 358.227 62.7983 358.037 65.7312ZM69.1048 60.8143C69.1048 64.7823 68.6309 67.4564 67.7777 68.4916C66.5454 70.0443 66.3558 69.1816 66.3558 60.2967C66.4506 51.3256 66.5454 50.6355 67.7777 52.6195C68.6309 53.9134 69.1048 57.1913 69.1048 60.8143ZM102.378 60.9868C102.378 67.3702 102.093 69.8717 101.43 69.0091C99.7233 66.5938 100.292 51.7569 102.093 51.7569C102.283 51.7569 102.378 55.8974 102.378 60.9868ZM112.805 60.383C112.805 68.4915 111.857 71.4244 110.53 67.0251C109.203 62.4533 110.151 51.7569 111.952 51.7569C112.426 51.7569 112.805 55.6386 112.805 60.383ZM363.061 63.8334C362.492 66.8526 362.398 65.9037 362.303 59.5204C362.303 52.7057 362.492 52.0156 363.061 55.6386C363.44 57.9677 363.44 61.6769 363.061 63.8334ZM353.297 64.9548C353.108 66.9389 353.013 65.0411 353.013 60.8143C353.013 56.5012 353.108 54.9485 353.297 57.1913C353.487 59.4341 353.487 62.9708 353.297 64.9548ZM49.2929 60.2967C49.2929 63.1434 48.9137 65.7312 48.345 65.99C47.7762 66.335 47.397 64.4373 47.397 60.9006C47.397 57.7089 47.7762 55.2073 48.345 55.2073C48.9137 55.2073 49.2929 57.4501 49.2929 60.2967ZM73.9393 60.4693C73.9393 64.2647 73.655 65.6449 72.8018 65.3861C71.5695 64.9548 70.6215 58.4852 71.4747 56.415C72.707 53.4821 73.9393 55.5524 73.9393 60.4693ZM368.749 59.5204C368.749 61.8494 368.37 63.8334 367.801 63.8334C367.327 63.8334 366.853 61.8494 366.853 59.5204C366.853 57.1051 367.327 55.2073 367.801 55.2073C368.37 55.2073 368.749 57.1051 368.749 59.5204ZM35.0738 60.2967C35.0738 62.7121 34.6946 64.8686 34.1259 65.1274C33.5571 65.4724 33.1779 63.8334 33.1779 60.9006C33.1779 58.2265 33.6519 56.0699 34.1259 56.0699C34.6946 56.0699 35.0738 57.9677 35.0738 60.2967ZM373.204 60.9868C372.92 61.8494 372.73 61.1593 372.73 59.5204C372.73 57.8814 372.92 57.1913 373.204 57.9677C373.394 58.8303 373.394 60.2105 373.204 60.9868ZM54.0326 60.9006C54.0326 62.712 53.6534 63.7472 53.0847 63.4021C52.6107 63.1433 52.1367 61.7632 52.1367 60.2967C52.1367 58.9165 52.6107 57.7952 53.0847 57.7952C53.6534 57.7952 54.0326 59.1753 54.0326 60.9006ZM106.833 61.8494C106.454 63.3159 106.454 63.3159 105.695 61.8494C105.316 61.0731 105.316 59.6929 105.695 58.8303C106.454 57.4501 106.454 57.4501 106.833 58.8303C107.117 59.6929 107.117 61.0731 106.833 61.8494ZM378.228 60.8143C378.228 61.5044 377.849 62.1082 377.28 62.1082C376.806 62.1082 376.332 61.5044 376.332 60.8143C376.332 60.1242 376.806 59.5204 377.28 59.5204C377.849 59.5204 378.228 60.1242 378.228 60.8143Z" fill="#FFE600"/>
</svg>
