<svg width="400" height="252" viewBox="0 0 400 252" fill="none" xmlns="http://www.w3.org/2000/svg">
<path d="M0 65.7074C0 68.7513 0.382592 73.4123 0.860832 75.8855C1.33907 78.3586 2.29555 84.8269 2.86944 90.2489C3.53898 95.5757 4.39981 100.142 4.7824 100.427C5.16499 100.712 5.83453 102.9 6.21712 105.373C6.88666 109.939 9.18221 117.644 12.2429 125.634L13.869 129.915L14.4429 125.634C15.0167 121.734 15.0167 121.924 15.1124 127.537C15.1124 132.007 15.6863 134.766 17.121 137.429L19.1296 141.139L19.4165 124.112L19.6078 107.085L19.8948 125.254C20.0861 144.373 20.373 145.705 26.1119 154.646C26.6858 155.598 29.1726 159.498 31.5638 163.207C41.7025 179.093 60.2582 198.973 75.6576 210.578C93.8307 224.181 117.743 236.451 137.255 242.254C139.933 243.11 142.898 244.061 143.95 244.632C146.055 245.583 161.454 248.817 170.732 250.244C188.14 253.003 222.095 252.242 237.685 248.722C261.597 243.49 273.075 239.59 291.057 230.839C311.908 220.566 325.681 210.673 342.42 194.122C356.289 180.424 357.341 179.283 364.802 168.629C372.74 157.31 385.461 134.576 385.461 131.817C385.461 131.437 386.035 129.82 386.801 128.203C387.566 126.49 389.574 120.688 391.2 115.171C392.826 109.654 394.644 103.851 395.122 102.139C396.652 97.2879 399.044 79.3099 399.522 69.2269L400 60.0001H200H0V65.7074ZM220.947 126.585C220.947 167.583 219.99 180.424 218.651 156.264C217.312 131.437 218.269 84.7318 220.086 84.7318C220.564 84.7318 220.947 103.566 220.947 126.585ZM244.859 126.585C244.859 153.885 244.572 168.439 243.902 168.439C243.233 168.439 242.946 153.885 242.946 126.585C242.946 99.2855 243.233 84.7318 243.902 84.7318C244.572 84.7318 244.859 99.2855 244.859 126.585ZM249.928 95.3855C251.363 118.976 250.406 168.439 248.494 168.439C248.111 168.439 247.728 149.605 247.728 126.585C247.728 86.2538 248.685 73.1269 249.928 95.3855ZM255.285 124.683C255.38 156.264 254.711 171.103 253.372 166.537C252.511 163.398 252.319 89.6782 253.18 86.6342C254.615 81.8782 255.189 93.483 255.285 124.683ZM216.165 126.585C216.165 165.11 215.208 178.237 213.869 157.31C212.53 134.671 213.486 85.1123 215.304 86.2538C215.782 86.5391 216.165 104.707 216.165 126.585ZM225.634 126.585C225.634 167.203 224.486 177.571 223.434 147.227C222.573 124.493 223.625 82.544 224.868 89.0123C225.347 91.105 225.634 108.037 225.634 126.585ZM230.99 125.634C230.99 145.8 230.607 163.493 230.129 165.11L229.268 167.964L228.503 163.683C227.642 158.451 227.451 97.5733 228.312 90.5343C228.79 86.3489 229.077 85.7782 229.938 87.205C230.607 88.4416 230.99 100.712 230.99 125.634ZM240.555 146.466C239.885 163.778 239.598 167.203 238.833 164.159C237.59 159.212 237.398 98.4294 238.642 90.9147C239.407 85.7782 239.598 87.3001 240.363 105.088C240.842 116.027 240.937 134.671 240.555 146.466ZM260.067 125.159C260.163 154.456 259.493 169.105 258.154 164.634C257.293 161.495 257.102 93.8635 257.963 89.0123L258.728 85.2074L259.302 90.9147C259.684 94.0538 259.971 109.464 260.067 125.159ZM235.677 107.085C236.346 127.537 235.485 165.585 234.338 165.585C233.19 165.585 232.425 150.556 232.425 126.015C232.425 101.759 233.094 87.5855 234.338 87.5855C234.72 87.5855 235.294 96.3367 235.677 107.085ZM327.977 126.3C327.881 152.173 327.594 163.968 327.021 161.781C325.203 155.027 325.777 87.5855 327.69 87.5855C327.881 87.5855 328.073 104.993 327.977 126.3ZM93.8307 126.11C93.8307 143.898 93.4481 159.973 92.8742 161.781C92.3003 163.968 92.0134 152.364 92.0134 126.585C92.0134 100.237 92.3003 88.9172 92.8742 90.9147C93.4481 92.5318 93.8307 107.561 93.8307 126.11ZM157.054 143.232C156.767 155.217 156.193 164.064 155.811 162.732C154.95 159.498 154.758 95.2903 155.715 91.2952C156.767 86.1586 157.628 118.405 157.054 143.232ZM88.7614 126.585C88.7614 137.81 88.4744 150.651 88.0918 155.122C87.6136 160.164 87.3266 149.32 87.3266 126.585C87.3266 103.851 87.6136 93.0074 88.0918 98.0489C88.4744 102.52 88.7614 115.361 88.7614 126.585ZM162.41 126.871C162.219 153.981 161.836 162.161 160.976 162.542C160.019 162.827 159.732 155.217 159.732 126.681C159.732 94.8147 159.923 90.5343 161.167 91.0099C162.41 91.4855 162.602 96.1465 162.41 126.871ZM322.621 144.849C321.76 162.637 321.664 161.971 321.664 126.585C321.664 91.2001 321.76 90.5343 322.621 108.227C323.195 119.927 323.195 133.244 322.621 144.849ZM192.061 125.254C192.348 159.498 192.061 163.873 190.053 161.876C189.192 161.02 188.809 152.649 188.618 132.007C188.235 101.664 188.809 91.0099 190.626 91.6757C191.487 91.9611 191.87 100.998 192.061 125.254ZM152.846 126.585C152.846 138.381 152.559 150.366 152.176 153.22L151.602 158.451L150.837 154.266C149.88 148.844 149.88 105.373 150.837 98.8099L151.602 93.7684L152.176 99.4757C152.559 102.615 152.846 114.79 152.846 126.585ZM166.906 126.585C166.906 150.366 166.619 157.405 165.758 157.69C164.802 158.071 164.515 151.412 164.515 126.585C164.515 101.759 164.802 95.1001 165.758 95.3855C166.619 95.766 166.906 102.805 166.906 126.585ZM196.461 125.159C196.557 138.761 196.174 151.603 195.6 153.695C194.739 157.31 194.739 157.12 194.07 149.415C193.209 138.571 193.113 119.071 193.879 105.659C194.931 86.9196 196.365 97.5733 196.461 125.159ZM211.382 127.251C211.286 154.837 211.191 158.166 209.947 156.073C208.13 152.934 207.843 102.424 209.66 98.5245C210.234 97.1928 210.904 96.1465 211.095 96.1465C211.191 96.1465 211.382 110.129 211.382 127.251ZM332.664 127.251C332.664 146.181 332.281 155.978 331.899 152.268C330.464 140.188 331.038 96.1465 332.473 96.1465C332.664 96.1465 332.759 110.129 332.664 127.251ZM187.47 125.824C187.47 154.076 186.896 159.498 184.696 155.312C183.262 152.744 183.262 101.568 184.601 98.905C187.088 94.3391 187.47 97.9538 187.47 125.824ZM63.7972 141.044C63.7016 149.034 63.5103 142.566 63.5103 126.585C63.5103 110.605 63.7016 104.137 63.7972 112.032C63.9885 120.022 63.9885 133.149 63.7972 141.044ZM98.9957 126.585C98.9957 146.561 98.7087 153.41 97.8479 154.266C96.8914 155.217 96.6045 149.7 96.6045 126.585C96.6045 103.471 96.8914 97.8586 97.8479 98.8099C98.7087 99.7611 98.9957 106.61 98.9957 126.585ZM84.1702 126.681C84.1702 144.849 83.8833 154.076 83.2138 153.695C82.6399 153.315 82.2573 143.612 82.2573 127.537C82.2573 104.707 82.5442 99.0001 83.7877 99.0001C83.979 99.0001 84.1702 111.461 84.1702 126.681ZM264.754 126.585C264.754 153.79 263.702 161.115 262.745 140.568C261.98 125.254 262.936 97.0025 264.084 100.903C264.467 102.234 264.754 113.744 264.754 126.585ZM347.489 112.793C348.254 128.203 347.298 154.171 346.055 154.171C345.672 154.171 345.289 141.71 345.289 126.585C345.289 111.366 345.672 99.0001 346.055 99.0001C346.533 99.0001 347.202 105.183 347.489 112.793ZM171.975 127.156C171.784 143.422 171.306 152.744 170.732 152.744C169.68 152.744 168.819 103.471 169.775 100.998C170.158 100.142 170.636 99.9513 171.21 100.522C171.879 101.188 172.071 111.271 171.975 127.156ZM279.292 127.061C279.292 153.22 278.24 161.4 277.092 143.898C276.231 132.103 276.231 120.593 276.997 109.654C278.24 92.9123 279.292 101.093 279.292 127.061ZM317.743 139.998C316.882 152.934 316.882 152.268 316.882 127.061C316.882 102.424 316.978 101.378 317.743 113.364C318.221 120.973 318.221 132.007 317.743 139.998ZM182.688 126.49C182.688 148.749 182.018 153.79 179.818 147.988C178.766 145.324 178.479 109.464 179.436 105.849C179.818 104.707 180.679 103.756 181.349 103.756C182.496 103.756 182.688 107.751 182.688 126.49ZM274.605 114.885C274.701 132.293 274.414 148.844 273.936 149.32C272.597 150.651 272.119 146.371 271.832 131.151C271.449 113.364 272.119 103.756 273.649 103.756C274.127 103.756 274.51 108.703 274.605 114.885ZM284.075 127.251C284.075 141.805 283.692 150.366 283.214 149.795C281.683 148.273 281.588 103.756 283.118 103.756C283.692 103.756 284.075 112.222 284.075 127.251ZM25.825 126.585C25.825 140.568 25.4424 148.464 24.8685 148.464C24.2946 148.464 23.912 140.568 23.912 126.585C23.912 112.603 24.2946 104.707 24.8685 104.707C25.4424 104.707 25.825 112.603 25.825 126.585ZM176.758 126.776C176.566 140.949 176.088 148.844 175.514 148.749C174.94 148.559 174.462 140.188 174.271 126.585C174.079 107.466 174.271 104.707 175.514 104.707C176.758 104.707 176.949 107.466 176.758 126.776ZM298.9 127.061C298.9 142.851 298.613 147.893 297.752 148.178C296.796 148.559 296.509 143.898 296.509 127.061C296.509 110.225 296.796 105.564 297.752 105.849C298.613 106.229 298.9 111.271 298.9 127.061ZM303.682 127.061C303.682 142.851 303.396 147.893 302.535 148.178C301.578 148.559 301.291 143.898 301.291 127.061C301.291 110.225 301.578 105.564 302.535 105.849C303.396 106.229 303.682 111.271 303.682 127.061ZM138.498 126.776C138.307 141.805 137.924 146.942 137.064 147.322C136.107 147.607 135.82 143.137 135.82 127.156C135.82 109.368 136.011 106.61 137.255 106.61C138.498 106.61 138.69 109.273 138.498 126.776ZM288.857 126.585C288.857 146.371 287.327 153.124 286.753 135.812C286.37 121.924 286.944 107.561 287.996 107.561C288.474 107.561 288.857 115.456 288.857 126.585ZM293.639 127.156C293.639 139.903 293.352 146.466 292.683 146.085C292.109 145.705 291.726 138.19 291.726 126.49C291.726 114.505 292.109 107.561 292.683 107.561C293.257 107.561 293.639 114.695 293.639 127.156ZM207.174 112.793C207.939 118.31 207.269 144.278 206.313 145.229C204.495 147.132 203.73 142.185 203.73 128.012C203.73 112.888 204.209 108.512 205.739 108.512C206.121 108.512 206.791 110.415 207.174 112.793ZM269.727 126.49C269.727 137.524 269.345 144.754 268.771 145.134C268.101 145.515 267.814 139.237 267.814 127.156C267.814 115.361 268.197 108.512 268.771 108.512C269.345 108.512 269.727 115.171 269.727 126.49ZM133.142 134.861C132.951 139.807 132.377 143.517 131.899 143.137C130.846 142.566 130.751 111.081 131.803 110.034C132.664 109.083 133.525 123.922 133.142 134.861ZM142.994 125.92C142.994 133.91 142.611 141.234 142.133 142.281L141.368 144.183L140.603 142.281C139.646 140.093 139.359 114.79 140.22 111.556C140.698 109.939 141.176 109.654 141.942 110.415C142.611 111.081 142.994 116.503 142.994 125.92ZM351.985 127.251C351.985 139.142 351.602 144.659 351.028 143.707C349.307 141.139 349.88 109.464 351.602 109.464C351.793 109.464 351.985 117.454 351.985 127.251ZM118.604 127.156C118.604 140.093 118.317 143.803 117.456 143.517C116.499 143.137 116.117 139.046 115.925 128.012C115.638 112.603 115.925 110.415 117.647 110.415C118.221 110.415 118.604 116.312 118.604 127.156ZM59.0148 135.432C58.9192 139.712 58.7279 135.907 58.7279 127.061C58.7279 118.12 58.9192 114.695 59.0148 119.261C59.2061 123.827 59.2061 131.151 59.0148 135.432ZM79.3878 126.776C79.2922 137.81 79.0053 141.805 78.3357 140.568C76.6141 137.62 77.188 111.366 79.0053 111.366C79.1966 111.366 79.3878 118.31 79.3878 126.776ZM308.943 126.11C308.943 140.093 308.465 143.993 306.934 141.615C305.978 140.188 305.787 112.983 306.648 112.032C308.369 110.32 308.943 113.649 308.943 126.11ZM122.908 126.585C122.908 136.668 122.621 140.283 121.76 140.568C120.803 140.949 120.516 137.715 120.516 126.585C120.516 115.456 120.803 112.222 121.76 112.507C122.621 112.888 122.908 116.503 122.908 126.585ZM312.482 133.91C312.386 138 312.195 134.671 312.195 126.585C312.195 118.5 312.386 115.171 312.482 119.166C312.673 123.256 312.673 129.915 312.482 133.91ZM337.637 126.585C337.637 134.385 337.255 139.998 336.681 140.378C336.107 140.759 335.725 135.907 335.725 126.585C335.725 117.264 336.107 112.412 336.681 112.793C337.255 113.173 337.637 118.785 337.637 126.585ZM30.6074 126.585C30.6074 134.861 30.2248 139.903 29.6509 139.903C29.077 139.903 28.6944 135.051 28.6944 127.251C28.6944 116.122 28.9813 113.268 30.3204 113.268C30.5117 113.268 30.6074 119.261 30.6074 126.585ZM45.0502 126.585C45.0502 133.529 44.6676 138.666 44.0937 139.237C43.3285 139.998 43.0416 136.193 43.0416 126.585C43.0416 116.978 43.3285 113.173 44.0937 113.934C44.6676 114.505 45.0502 119.642 45.0502 126.585ZM128.168 126.585C128.168 134.861 127.786 139.903 127.212 139.903C126.638 139.903 126.255 135.051 126.255 127.251C126.255 116.122 126.542 113.268 127.881 113.268C128.073 113.268 128.168 119.261 128.168 126.585ZM201.243 114.79C203.443 116.978 203.443 136.193 201.243 138.381C200.478 139.237 199.617 139.903 199.33 139.903C199.139 139.903 198.948 133.91 198.948 126.585C198.948 119.261 199.139 113.268 199.33 113.268C199.617 113.268 200.478 113.934 201.243 114.79ZM40.0765 126.776C40.0765 134.766 39.6939 138.761 39.2157 137.524C37.6853 134.005 38.2592 114.22 39.7896 114.22C39.9809 114.22 40.1722 119.927 40.0765 126.776ZM148.254 127.251C148.159 139.522 148.063 140.188 146.724 137.715C144.907 134.385 144.715 121.068 146.341 117.073C147.011 115.456 147.681 114.22 147.872 114.22C148.063 114.22 148.254 120.117 148.254 127.251ZM342.42 126.681C342.42 134.005 342.037 137.905 341.463 137.524C339.646 136.478 340.316 115.171 342.133 115.171C342.324 115.171 342.42 120.307 342.42 126.681ZM361.263 132.483C361.071 135.812 360.976 133.149 360.976 126.585C360.976 120.022 361.071 117.359 361.263 120.593C361.454 123.922 361.454 129.249 361.263 132.483ZM69.7274 127.061C69.7274 131.437 69.2492 134.385 68.3883 135.527C67.1449 137.239 66.9536 136.288 66.9536 126.49C67.0493 116.598 67.1449 115.837 68.3883 118.024C69.2492 119.451 69.7274 123.066 69.7274 127.061ZM103.3 127.251C103.3 134.29 103.013 137.049 102.343 136.098C100.622 133.434 101.196 117.073 103.013 117.073C103.204 117.073 103.3 121.639 103.3 127.251ZM113.821 126.585C113.821 135.527 112.865 138.761 111.526 133.91C110.187 128.868 111.143 117.073 112.96 117.073C113.439 117.073 113.821 121.354 113.821 126.585ZM366.332 130.39C365.758 133.72 365.662 132.673 365.567 125.634C365.567 118.12 365.758 117.359 366.332 121.354C366.714 123.922 366.714 128.012 366.332 130.39ZM356.48 131.627C356.289 133.815 356.193 131.722 356.193 127.061C356.193 122.305 356.289 120.593 356.48 123.066C356.671 125.539 356.671 129.439 356.48 131.627ZM49.737 126.49C49.737 129.629 49.3544 132.483 48.7805 132.768C48.2066 133.149 47.824 131.056 47.824 127.156C47.824 123.637 48.2066 120.878 48.7805 120.878C49.3544 120.878 49.737 123.351 49.737 126.49ZM74.6055 126.681C74.6055 130.866 74.3185 132.388 73.4577 132.103C72.2142 131.627 71.2578 124.493 72.1186 122.21C73.362 118.976 74.6055 121.259 74.6055 126.681ZM372.071 125.634C372.071 128.203 371.688 130.39 371.114 130.39C370.636 130.39 370.158 128.203 370.158 125.634C370.158 122.971 370.636 120.878 371.114 120.878C371.688 120.878 372.071 122.971 372.071 125.634ZM35.3898 126.49C35.3898 129.154 35.0072 131.532 34.4333 131.817C33.8594 132.198 33.4768 130.39 33.4768 127.156C33.4768 124.207 33.955 121.829 34.4333 121.829C35.0072 121.829 35.3898 123.922 35.3898 126.49ZM376.566 127.251C376.279 128.203 376.088 127.442 376.088 125.634C376.088 123.827 376.279 123.066 376.566 123.922C376.758 124.873 376.758 126.395 376.566 127.251ZM54.5194 127.156C54.5194 129.154 54.1368 130.295 53.5629 129.915C53.0846 129.629 52.6064 128.107 52.6064 126.49C52.6064 124.968 53.0846 123.732 53.5629 123.732C54.1368 123.732 54.5194 125.254 54.5194 127.156ZM107.795 128.203C107.413 129.82 107.413 129.82 106.648 128.203C106.265 127.346 106.265 125.824 106.648 124.873C107.413 123.351 107.413 123.351 107.795 124.873C108.082 125.824 108.082 127.346 107.795 128.203ZM381.636 127.061C381.636 127.822 381.253 128.488 380.679 128.488C380.201 128.488 379.723 127.822 379.723 127.061C379.723 126.3 380.201 125.634 380.679 125.634C381.253 125.634 381.636 126.3 381.636 127.061Z" fill="#FFE600"/>
<path d="M232.942 24.2592V48.5186H258.074H283.207V43.0051V37.4916L263.84 37.3446L244.399 37.124L244.177 18.5252L244.029 -0.000102997H238.486H232.942V24.2592Z" fill="#8E05C2"/>
<path d="M290.747 24.0389L290.969 48.1512L296.734 48.3717L302.426 48.5923V43.7404V38.9621H316.101H329.776V43.7404V48.5188H335.69H341.604V24.2594V0.000114441H316.101H290.599L290.747 24.0389ZM329.776 19.4811V27.9351L316.323 27.7881L302.796 27.5675L302.574 19.2605L302.352 11.0271H316.101H329.776V19.4811Z" fill="#8E05C2"/>
<path d="M349.734 24.2592V48.5186H374.867H400V24.2592V-0.000102997H374.867H349.734V24.2592ZM388.173 14.7025V18.3782H374.867H361.562V14.7025V11.0269H374.867H388.173V14.7025ZM387.803 33.4484V37.124L374.719 37.3446L361.562 37.4916V33.4484V29.4051L374.719 29.5522L387.803 29.7727V33.4484Z" fill="#8E05C2"/>
<path d="M31.4159 10.5269H50.5785V5.51338V0.499897H25.5762H0.578922L0.721704 14.8421L0.721734 14.8446L0.936227 29.2784L19.5187 29.4933L19.5206 29.4933L38.516 29.6403L39.0121 29.6441V30.1403V33.4484V36.7565V37.2526L38.516 37.2564L19.5206 37.4034L19.5187 37.4035L0.92453 37.6185L0.721386 42.8039L0.721376 42.8041L0.519711 48.0186H25.5762H50.5785V33.4484V18.8744L31.7077 18.7311L31.7059 18.7311L12.265 18.5106L11.8008 18.5053L11.7717 18.042L11.5499 14.514L11.5499 14.5133L11.3282 11.0589L11.294 10.5269H11.8271H31.4159Z" fill="#FFE600" stroke="black"/>
<path d="M57.879 24.0387L58.1008 48.151L83.8248 48.3715L109.475 48.5186V24.2592V-0.000102997H83.6031H57.7312L57.879 24.0387ZM96.9086 23.8917V36.7565H83.6031H70.2975V23.8917V11.0269H83.6031H96.9086V23.8917Z" fill="#FFE600"/>
<path d="M116.867 24.2594V48.5188H122.781H128.694V35.2864C128.694 24.7005 128.916 22.1276 129.655 22.7892C130.099 23.2303 131.429 24.1859 132.464 24.8475C133.573 25.5092 136.825 27.7146 139.782 29.7729C142.739 31.7578 145.991 34.0367 147.1 34.6983C155.084 39.9177 155.231 40.0648 155.453 44.3285L155.675 48.1512L161.441 48.3717L167.132 48.5923V24.2594V0.000114441H161.219H155.305V12.4973C155.305 19.3341 155.084 24.9946 154.862 24.9946C154.344 24.9946 151.535 23.4508 150.574 22.6422C149.687 21.907 138.156 13.9676 132.242 10.0714C128.768 7.7925 128.694 7.64548 128.694 3.89631V0.000114441H122.781H116.867V24.2594Z" fill="#FFE600"/>
<path d="M175.264 24.2592V48.5186H200.396H225.529V33.4484V18.3782H214.811H204.018L204.24 24.0387L204.462 29.7727L209.119 29.9932L213.702 30.2138V33.4484V36.7565H200.396H187.091V23.8917V11.0269H206.31H225.529V5.51338V-0.000102997H200.396H175.264V24.2592Z" fill="#FFE600"/>
</svg>
